<?xml version="1.0" encoding="UTF-8" standalone="no"?>
<!-- Generated by IcoMoon.io -->

<svg
   xmlns:dc="http://purl.org/dc/elements/1.1/"
   xmlns:cc="http://creativecommons.org/ns#"
   xmlns:rdf="http://www.w3.org/1999/02/22-rdf-syntax-ns#"
   xmlns:svg="http://www.w3.org/2000/svg"
   xmlns="http://www.w3.org/2000/svg"
   xmlns:sodipodi="http://sodipodi.sourceforge.net/DTD/sodipodi-0.dtd"
   xmlns:inkscape="http://www.inkscape.org/namespaces/inkscape"
   version="1.1"
   width="60"
   height="60"
   viewBox="0 0 60 59.999999"
   id="svg2987"
   inkscape:version="0.48.4 r9939"
   sodipodi:docname="gasto.svg">
  <metadata
     id="metadata2995">
    <rdf:RDF>
      <cc:Work
         rdf:about="">
        <dc:format>image/svg+xml</dc:format>
        <dc:type
           rdf:resource="http://purl.org/dc/dcmitype/StillImage" />
        <dc:title></dc:title>
      </cc:Work>
    </rdf:RDF>
  </metadata>
  <defs
     id="defs2993" />
  <sodipodi:namedview
     pagecolor="#ffffff"
     bordercolor="#666666"
     borderopacity="1"
     objecttolerance="10"
     gridtolerance="10"
     guidetolerance="10"
     inkscape:pageopacity="0"
     inkscape:pageshadow="2"
     inkscape:window-width="1301"
     inkscape:window-height="744"
     id="namedview2991"
     showgrid="false"
     inkscape:zoom="2.6074563"
     inkscape:cx="-47.998845"
     inkscape:cy="14.833899"
     inkscape:window-x="65"
     inkscape:window-y="24"
     inkscape:window-maximized="1"
     inkscape:current-layer="svg2987"
     fit-margin-top="0"
     fit-margin-left="0"
     fit-margin-right="0"
     fit-margin-bottom="0" />
  <g
     id="g3838"
     transform="matrix(1.0667236,0,0,1.0667236,0,2.744226)">
    <path
       id="path4"
       d="M 40.415681,46.950589 20.143648,38.045475 35.974966,2.0063008 56.246999,10.911415 40.415681,46.950589 z M 23.315728,36.751811 39.152691,43.708684 53.005094,12.174407 37.168131,5.2175333 23.315728,36.751811 z M 40.668967,18.847324 C 36.937787,17.20829 32.80442,18.399442 31.43798,21.510074 L 37.869452,6.8691586 51.38414,12.805903 44.952668,27.446817 c 1.36644,-3.110632 -0.552522,-6.960459 -4.283701,-8.599493 z m 4.231362,-3.51544 c 0.409635,-0.932513 -0.267002,-2.132611 -1.510354,-2.678792 -1.243352,-0.54618 -2.584907,-0.232636 -2.994541,0.699878 -0.409637,0.932514 0.267003,2.132614 1.510355,2.678795 1.243351,0.54618 2.584905,0.232634 2.99454,-0.699881 z m -8.497507,5.513513 c 0.05452,0.0441 0.08806,0.08705 0.103352,0.128697 0.01484,0.04278 0.01053,0.08925 -0.01225,0.141064 -0.02275,0.0518 -0.08991,0.119049 -0.205201,0.204096 -0.115877,0.08349 -0.246555,0.191338 -0.394892,0.320977 -0.148812,0.130788 -0.301754,0.28932 -0.460933,0.477359 -0.15918,0.18804 -0.292358,0.41168 -0.40565,0.669585 -0.08905,0.202718 -0.142578,0.388801 -0.158824,0.560356 -0.01625,0.17156 -0.0041,0.327376 0.03748,0.465212 0.0422,0.13945 0.114283,0.259794 0.213014,0.362286 0.09874,0.102493 0.217864,0.183039 0.353014,0.242404 0.202718,0.08905 0.401526,0.110549 0.597545,0.06499 0.196018,-0.04556 0.392596,-0.135209 0.589101,-0.270577 0.197631,-0.134869 0.396641,-0.297351 0.600304,-0.488661 0.203769,-0.188605 0.416136,-0.381492 0.634992,-0.576901 0.221101,-0.194425 0.453283,-0.377237 0.699179,-0.548708 0.245934,-0.171425 0.509634,-0.306831 0.789123,-0.401711 0.279485,-0.09488 0.578551,-0.139515 0.897687,-0.135019 0.319766,0.0061 0.660477,0.08995 1.027625,0.251227 0.478645,0.210261 0.859013,0.482145 1.142361,0.818896 0.28335,0.336753 0.477685,0.710986 0.584132,1.123188 0.108072,0.411571 0.133055,0.847113 0.0756,1.308235 -0.007,0.05873 -0.02498,0.118008 -0.03583,0.176388 l 1.229836,0.540243 -0.486319,1.107078 -1.084552,-0.476424 c -0.0065,0.01462 -0.0096,0.02802 -0.01556,0.04154 -0.13803,0.314217 -0.291436,0.59615 -0.460355,0.843056 -0.168922,0.246903 -0.336872,0.45796 -0.49836,0.63289 -0.163108,0.175563 -0.31376,0.313606 -0.453451,0.417497 -0.139677,0.103907 -0.253052,0.172325 -0.340578,0.206435 -0.08754,0.03409 -0.194672,0.03943 -0.320924,0.01488 -0.127378,-0.02506 -0.297745,-0.08377 -0.513981,-0.178757 -0.145279,-0.06382 -0.264937,-0.121756 -0.359591,-0.175428 -0.09466,-0.05367 -0.167062,-0.102944 -0.219603,-0.151552 -0.05254,-0.04862 -0.08349,-0.09442 -0.09354,-0.141855 -0.0094,-0.04581 -0.0051,-0.09228 0.01564,-0.139573 0.02869,-0.06532 0.10755,-0.140854 0.238199,-0.227219 0.130643,-0.08638 0.28352,-0.201939 0.459121,-0.347829 0.177261,-0.146476 0.359647,-0.332409 0.553258,-0.559065 0.190868,-0.226512 0.362871,-0.511028 0.513268,-0.853401 0.09894,-0.225247 0.160474,-0.438712 0.184583,-0.640402 0.02411,-0.201691 0.01544,-0.386877 -0.02925,-0.554298 -0.04469,-0.167425 -0.124764,-0.315455 -0.24086,-0.445721 -0.117248,-0.13074 -0.263922,-0.23417 -0.44412,-0.313325 -0.206093,-0.09054 -0.408145,-0.110769 -0.605787,-0.06458 -0.197007,0.04779 -0.391963,0.136836 -0.587616,0.267199 -0.194026,0.129737 -0.39106,0.287709 -0.593349,0.472932 -0.202288,0.185219 -0.413168,0.374731 -0.632023,0.57014 -0.219482,0.193796 -0.451136,0.37552 -0.696251,0.541901 -0.24508,0.166428 -0.504055,0.29719 -0.782554,0.389817 -0.2785,0.09263 -0.579816,0.136269 -0.900213,0.128536 -0.320893,-0.0066 -0.672234,-0.09377 -1.051774,-0.26049 -0.436974,-0.191955 -0.78427,-0.441251 -1.043508,-0.747257 -0.25925,-0.305994 -0.43806,-0.645205 -0.534704,-1.015487 -0.09665,-0.370281 -0.117967,-0.765243 -0.06233,-1.185516 0.0278,-0.216196 0.07545,-0.431726 0.13747,-0.646321 l -1.164516,-0.511548 0.486319,-1.107078 1.164515,0.511548 c 0.02492,-0.04145 0.04197,-0.08637 0.06802,-0.127311 0.12716,-0.200755 0.260128,-0.384188 0.398564,-0.546405 0.1378,-0.163843 0.272469,-0.302186 0.407742,-0.41742 0.133601,-0.114667 0.233134,-0.185107 0.301214,-0.211632 0.06808,-0.02652 0.119736,-0.0401 0.160304,-0.04379 0.0396,-0.0014 0.08944,0.0044 0.148949,0.01572 0.0595,0.01136 0.130547,0.03316 0.215362,0.06639 0.08306,0.03111 0.186542,0.07388 0.308174,0.127314 0.136277,0.05986 0.25079,0.114198 0.342424,0.162512 0.08453,0.04921 0.15841,0.09511 0.211808,0.138719 z m -0.681142,9.264168 c 3.73118,1.639036 7.864548,0.447882 9.230988,-2.662748 L 38.521196,42.087731 25.006508,36.150987 31.43798,21.510074 c -1.36644,3.110632 0.552521,6.960456 4.2837,8.599491 z m -4.231362,3.515442 c -0.410131,0.93364 0.267004,2.132612 1.510355,2.678792 1.243353,0.546181 2.584411,0.233762 2.99454,-0.699878 0.409636,-0.932515 -0.267002,-2.132613 -1.510353,-2.678793 -1.243353,-0.546182 -2.584907,-0.232635 -2.994542,0.699879 z"
       inkscape:connector-curvature="0"
       style="fill:#444444" />
    <rect
       y="30.348043"
       x="17.579954"
       height="12.009077"
       width="13.176627"
       id="rect3818"
       style="fill:#ffffff;fill-opacity:1;stroke:none" />
    <path
       style="fill:#444444"
       inkscape:connector-curvature="0"
       id="path2989"
       d="M 27.554162,25.477694 H 2.9522316 V 24.493617 L 24.60193,22.761641 v 1.731976 h 2.952232 v -2.952231 c 0,-2.16497 -1.754118,-3.684139 -3.894486,-3.379075 L 3.8969457,20.984152 C 1.7541176,21.291676 0,23.312725 0,25.477694 v 19.681544 c 0,2.172351 1.7614982,3.936309 3.9363088,3.936309 H 27.554162 c 2.17235,0 3.936308,-1.763958 3.936308,-3.936309 V 29.414003 c 0,-2.17235 -1.763958,-3.936309 -3.936308,-3.936309 z M 24.60193,39.267076 c -1.629878,0 -2.952232,-1.322354 -2.952232,-2.952231 0,-1.629878 1.322354,-2.952232 2.952232,-2.952232 1.629878,0 2.952232,1.322354 2.952232,2.952232 0,1.629877 -1.322354,2.952231 -2.952232,2.952231 z" />
  </g>
</svg>
