<?xml version="1.0" encoding="UTF-8" standalone="no"?>
<!-- Generated by IcoMoon.io -->

<svg
   xmlns:dc="http://purl.org/dc/elements/1.1/"
   xmlns:cc="http://creativecommons.org/ns#"
   xmlns:rdf="http://www.w3.org/1999/02/22-rdf-syntax-ns#"
   xmlns:svg="http://www.w3.org/2000/svg"
   xmlns="http://www.w3.org/2000/svg"
   xmlns:sodipodi="http://sodipodi.sourceforge.net/DTD/sodipodi-0.dtd"
   xmlns:inkscape="http://www.inkscape.org/namespaces/inkscape"
   version="1.1"
   width="29.911377"
   height="30"
   viewBox="0 0 29.911377 30"
   id="svg2"
   inkscape:version="0.48.4 r9939"
   sodipodi:docname="twitter.svg">
  <metadata
     id="metadata10">
    <rdf:RDF>
      <cc:Work
         rdf:about="">
        <dc:format>image/svg+xml</dc:format>
        <dc:type
           rdf:resource="http://purl.org/dc/dcmitype/StillImage" />
        <dc:title></dc:title>
      </cc:Work>
    </rdf:RDF>
  </metadata>
  <defs
     id="defs8" />
  <sodipodi:namedview
     pagecolor="#ffffff"
     bordercolor="#666666"
     borderopacity="1"
     objecttolerance="10"
     gridtolerance="10"
     guidetolerance="10"
     inkscape:pageopacity="0"
     inkscape:pageshadow="2"
     inkscape:window-width="1301"
     inkscape:window-height="744"
     id="namedview6"
     showgrid="false"
     fit-margin-top="0"
     fit-margin-left="0"
     fit-margin-right="0"
     fit-margin-bottom="0"
     inkscape:zoom="5.2149125"
     inkscape:cx="-15.821434"
     inkscape:cy="15"
     inkscape:window-x="65"
     inkscape:window-y="24"
     inkscape:window-maximized="1"
     inkscape:current-layer="svg2" />
  <g
     id="g3554"
     transform="matrix(0.80899834,0,0,0.80899834,0.84438595,0.5052959)">
    <path
       sodipodi:nodetypes="ccsccscsccc"
       style="fill:#444444"
       inkscape:connector-curvature="0"
       id="path4-5"
       d="m 15.578544,24.028401 c 4.682228,2.814301 7.71737,7.399269 8.699,12.429899 0.953284,-0.589219 1.772145,-1.433969 2.337783,-2.492295 1.072355,-2.00641 1.001221,-4.325767 6.88e-4,-6.193942 0.933472,0.534057 1.684584,1.275659 2.237719,2.124617 0.01178,-0.02205 0.0264,-0.04939 0.03818,-0.07144 1.499412,-2.805446 0.756002,-6.215455 -1.612757,-8.160659 0.555771,0.12696 1.106358,0.329386 1.635521,0.612205 0.374823,0.20033 0.71215,0.43051 1.034865,0.688029 0.489312,-2.693334 -0.753795,-5.512076 -3.256327,-6.914221 -9.517436,-5.496537 1.505337,1.75157 -11.114673,7.977804 z" />
    <path
       sodipodi:nodetypes="ccsccscsccc"
       style="fill:#444444"
       inkscape:connector-curvature="0"
       id="path4"
       d="M 11.386156,16.097896 C 8.5718563,11.415667 3.9868881,8.3805255 -1.0437425,7.3988954 -0.45452346,6.4456116 0.39022654,5.6267499 1.4485529,5.061112 3.4549625,3.9887569 5.7743201,4.0598913 7.642495,5.0604239 7.1084376,4.1269525 6.3668357,3.37584 5.5178778,2.8227049 5.5399268,2.8109208 5.5672668,2.7963085 5.5893148,2.7845243 8.3947605,1.2851125 11.80477,2.0285223 13.749974,4.3972812 13.623014,3.8415104 13.420588,3.2909238 13.137769,2.7617608 12.937439,2.386937 12.707259,2.0496102 12.44974,1.7268954 c 2.693334,-0.4893121 5.512076,0.753795 6.914221,3.2563264 5.496537,9.5174372 -1.75157,-1.5053362 -7.977805,11.1146742 z" />
    <g
       transform="matrix(0.79204715,-0.61045993,0.61045993,0.79204715,-23.872612,-2.6545587)"
       id="g3478">
      <rect
         style="fill:#ffffff;fill-opacity:1;stroke:none"
         id="rect3476"
         width="29.559322"
         height="16"
         x="6.6440678"
         y="32.677967" />
      <path
         id="path3467"
         d="m 5.4237283,49.40678 v -18 H 37.423728 v 18 H 5.4237283 z m 2,-16.062 v 14.062 H 35.423728 v -14.062 H 7.4237283 z m 19.0000007,7.062 c 0,-3.313 -2.238,-6 -5,-6 h 13 v 12 h -13 c 2.762,0 5,-2.687 5,-6 z m 4,2 c 0.828,0 1.5,-0.896 1.5,-2 0,-1.104 -0.672,-2 -1.5,-2 -0.828,0 -1.5,0.896 -1.5,2 0,1.104 0.672,2 1.5,2 z m -6.882,-4.522 c -0.015,0.055 -0.036,0.094 -0.062,0.119 -0.027,0.025 -0.063,0.037 -0.109,0.037 -0.046,0 -0.118,-0.028 -0.219,-0.086 -0.1,-0.059 -0.223,-0.121 -0.368,-0.189 -0.146,-0.068 -0.314,-0.13 -0.506,-0.187 -0.192,-0.057 -0.402,-0.083 -0.631,-0.083 -0.18,0 -0.336,0.021 -0.469,0.065 -0.133,0.044 -0.245,0.104 -0.334,0.18 -0.09,0.077 -0.156,0.17 -0.2,0.277 -0.044,0.107 -0.065,0.222 -0.065,0.342 0,0.18 0.049,0.335 0.147,0.466 0.098,0.131 0.229,0.248 0.394,0.35 0.165,0.103 0.351,0.198 0.56,0.287 0.207,0.09 0.42,0.185 0.637,0.284 0.217,0.101 0.429,0.214 0.637,0.341 0.208,0.127 0.395,0.279 0.557,0.456 0.162,0.177 0.293,0.385 0.394,0.624 0.1,0.24 0.149,0.521 0.149,0.847 0,0.425 -0.078,0.797 -0.236,1.118 -0.158,0.321 -0.373,0.588 -0.645,0.802 -0.271,0.215 -0.587,0.376 -0.949,0.484 -0.046,0.014 -0.096,0.02 -0.143,0.031 v 1.092 h -0.983 v -0.963 c -0.013,0 -0.024,0.002 -0.036,0.002 -0.279,0 -0.539,-0.022 -0.778,-0.067 -0.239,-0.045 -0.451,-0.101 -0.634,-0.164 -0.184,-0.064 -0.336,-0.131 -0.459,-0.201 -0.123,-0.07 -0.211,-0.132 -0.265,-0.186 -0.054,-0.054 -0.093,-0.132 -0.116,-0.234 -0.023,-0.103 -0.035,-0.249 -0.035,-0.441 0,-0.129 0.004,-0.237 0.013,-0.325 0.009,-0.088 0.022,-0.158 0.041,-0.213 0.019,-0.055 0.043,-0.093 0.075,-0.116 0.031,-0.022 0.067,-0.034 0.109,-0.034 0.058,0 0.14,0.034 0.247,0.103 0.107,0.069 0.243,0.145 0.409,0.228 0.167,0.084 0.365,0.159 0.597,0.229 0.231,0.068 0.499,0.103 0.803,0.103 0.2,0 0.379,-0.024 0.537,-0.072 0.158,-0.048 0.293,-0.115 0.403,-0.203 0.11,-0.088 0.194,-0.196 0.253,-0.325 0.059,-0.13 0.088,-0.273 0.088,-0.433 0,-0.183 -0.051,-0.34 -0.15,-0.472 -0.1,-0.131 -0.23,-0.247 -0.391,-0.35 -0.16,-0.102 -0.342,-0.197 -0.546,-0.287 -0.204,-0.09 -0.414,-0.185 -0.631,-0.284 -0.216,-0.1 -0.427,-0.213 -0.631,-0.341 -0.204,-0.128 -0.386,-0.278 -0.546,-0.455 -0.16,-0.177 -0.291,-0.387 -0.39,-0.628 -0.1,-0.241 -0.15,-0.531 -0.15,-0.868 0,-0.388 0.072,-0.728 0.215,-1.021 0.143,-0.293 0.337,-0.537 0.581,-0.73 0.244,-0.193 0.531,-0.338 0.862,-0.434 0.17,-0.05 0.346,-0.085 0.526,-0.109 v -1.034 h 0.983 v 1.034 c 0.039,0.005 0.078,0.003 0.117,0.009 0.191,0.029 0.371,0.068 0.537,0.118 0.167,0.049 0.314,0.104 0.444,0.167 0.129,0.062 0.214,0.113 0.256,0.155 0.042,0.042 0.069,0.076 0.085,0.105 0.014,0.029 0.026,0.068 0.037,0.116 0.011,0.048 0.018,0.108 0.021,0.182 0.004,0.072 0.006,0.163 0.006,0.271 0,0.121 -0.003,0.224 -0.009,0.308 -0.009,0.079 -0.019,0.149 -0.034,0.203 z m -7.118,2.522 c 0,3.313 2.238,6 5,6 H 8.4237283 v -12 H 21.423729 c -2.762,0 -5,2.687 -5,6 z m -4.000001,-2 c -0.829,0 -1.5,0.896 -1.5,2 0,1.104 0.671,2 1.5,2 0.828,0 1.5,-0.896 1.5,-2 0,-1.104 -0.672,-2 -1.5,-2 z"
         inkscape:connector-curvature="0"
         style="fill:#444444" />
    </g>
  </g>
</svg>
